<?xml version="1.0" standalone="no"?>
<!DOCTYPE svg PUBLIC "-//W3C//DTD SVG 20010904//EN"
 "http://www.w3.org/TR/2001/REC-SVG-20010904/DTD/svg10.dtd">
<svg version="1.0" xmlns="http://www.w3.org/2000/svg"
 width="128.000000pt" height="128.000000pt" viewBox="0 0 128.000000 128.000000"
 preserveAspectRatio="xMidYMid meet">
<metadata>
Created by potrace 1.11, written by Peter Selinger 2001-2013
</metadata>
<g transform="translate(0.000000,128.000000) scale(0.100000,-0.100000)"
fill="#000000" stroke="none">
<path d="M983 699 c-18 -12 -33 -25 -33 -30 0 -5 -121 -9 -274 -9 -151 0 -278
0 -283 -1 -4 -1 -16 1 -26 6 -11 4 -28 2 -43 -5 -20 -11 -27 -11 -42 3 -23 21
-36 21 -52 2 -7 -8 -27 -15 -45 -15 -27 0 -32 4 -31 23 1 17 -4 21 -19 19 -51
-8 -133 -62 -95 -62 6 0 31 -13 57 -29 48 -30 65 -27 56 10 -3 10 -1 19 3 20
5 0 20 2 33 5 14 2 32 -3 42 -12 18 -16 22 -16 69 11 17 10 26 11 31 3 5 -7
16 -8 35 -1 17 6 150 11 305 11 267 1 277 1 295 -19 36 -40 73 -51 181 -54 57
-1 103 1 103 5 0 4 -13 20 -30 36 -36 36 -37 44 -5 68 14 10 25 23 25 27 0 5
-51 9 -112 9 -97 0 -118 -3 -145 -21z"/>
</g>
</svg>
